<svg width="196" height="42" viewBox="0 0 196 42" fill="none" xmlns="http://www.w3.org/2000/svg">
<g clip-path="url(#clip0_4188_439)">
<path d="M35.6374 23.0673V29.0069C35.6374 29.0754 35.6361 29.1439 35.6321 29.2123C35.6307 29.2257 35.6307 29.2405 35.6294 29.2539C35.6267 29.2942 35.624 29.3345 35.62 29.3761C35.616 29.4163 35.6119 29.4566 35.6066 29.4969C35.6025 29.5358 35.5958 29.5747 35.5905 29.6123C35.5811 29.67 35.5717 29.7264 35.5596 29.7841C35.5529 29.8204 35.5448 29.8553 35.5368 29.8915C35.5287 29.9224 35.5207 29.9546 35.5126 29.9868C35.5059 30.0163 35.4978 30.0445 35.4884 30.0741C35.4522 30.2043 35.4079 30.3331 35.3569 30.4593C35.3462 30.4861 35.3354 30.5143 35.3233 30.5412C35.2925 30.615 35.2589 30.6875 35.2227 30.7586C35.2052 30.7949 35.1864 30.8298 35.1676 30.8647L35.1663 30.8633L28.4468 27.1237L17.9233 21.266L25.8374 17.623L35.4951 22.9895L35.6374 23.0673Z" fill="url(#paint0_linear_4188_439)"/>
<path d="M35.5194 11.982L33.471 13.5605L31.6576 16.4115L14.416 6.81423L20.9677 2.21289L24.9274 4.50014H24.9288L32.1851 8.6894L33.6872 9.55651C34.612 10.0907 35.2643 10.9713 35.5194 11.982Z" fill="url(#paint1_linear_4188_439)"/>
<path d="M24.9275 4.50101L0 18.7815V12.9373C0 11.5426 0.743624 10.254 1.95034 9.55738L15.8685 1.52248C17.0752 0.825839 18.5624 0.825839 19.7705 1.52248L24.9275 4.50101Z" fill="#21E786"/>
<path d="M35.6376 12.9364V14.9646L3.43758 33.2452L1.95034 32.3861C0.743624 31.6881 0 30.4009 0 29.0062V26.9821L32.1852 8.68945L33.6872 9.55657C34.894 10.2532 35.6376 11.5418 35.6376 12.9364Z" fill="#21E786"/>
<path d="M35.6374 22.9062V29.0069C35.6374 29.0754 35.636 29.1438 35.632 29.2123C35.6307 29.2257 35.6307 29.2405 35.6293 29.2539C35.6266 29.2942 35.624 29.3344 35.6199 29.376C35.6159 29.4163 35.6119 29.4566 35.6065 29.4969C35.6025 29.5358 35.5958 29.5747 35.5904 29.6123C35.581 29.67 35.5716 29.7264 35.5595 29.7841C35.5528 29.8203 35.5448 29.8552 35.5367 29.8915C35.5287 29.9224 35.5206 29.9546 35.5125 29.9868C35.5058 30.0163 35.4978 30.0445 35.4884 30.074C35.4521 30.2042 35.4079 30.3331 35.3568 30.4593C35.3461 30.4861 35.3354 30.5143 35.3233 30.5411C35.2924 30.615 35.2589 30.6875 35.2226 30.7586C35.2052 30.7948 35.1864 30.8297 35.1676 30.8646C35.1461 30.9036 35.1246 30.9425 35.1018 30.9801C35.0803 31.019 35.0562 31.0566 35.0334 31.0942C34.985 31.168 34.9354 31.2418 34.883 31.313C34.8293 31.3854 34.7743 31.4552 34.7179 31.5224C34.6884 31.5573 34.6589 31.5908 34.6293 31.623C34.5998 31.6566 34.5689 31.6888 34.538 31.721C34.4763 31.7854 34.4119 31.8485 34.3448 31.9076C34.3193 31.9318 34.2924 31.9546 34.2656 31.9774C34.2495 31.9908 34.2334 32.0042 34.2172 32.0177C34.185 32.0458 34.1515 32.0727 34.1166 32.0982C34.083 32.125 34.0495 32.1505 34.0132 32.1747C33.9461 32.2244 33.8763 32.2714 33.8052 32.3156C33.7662 32.3398 33.7273 32.364 33.687 32.3868L19.7703 40.4217C18.5622 41.1183 17.075 41.1183 15.8683 40.4217L10.7783 37.4834L28.4468 27.1237L35.4951 22.9895L35.6374 22.9062Z" fill="#21E786"/>
<path d="M6.99866 6.64258V35.3003L3.43758 33.2453L1.95034 32.3862C0.743624 31.6882 0 30.401 0 29.0063V12.9365C0 11.5419 0.743624 10.2533 1.95034 9.55667L6.99866 6.64258Z" fill="#21E786"/>
</g>
<path d="M72.48 31.616V31.712H67.04C66.8907 31.2 66.7093 30.6133 66.496 29.952C66.304 29.2907 66.0907 28.5867 65.856 27.84H58.944C58.5173 29.3333 58.1227 30.624 57.76 31.712H52.32V31.648L58.88 11.456H65.92L72.48 31.616ZM62.336 15.104C62.1227 16.192 61.8133 17.5147 61.408 19.072C61.0027 20.6293 60.576 22.2187 60.128 23.84H64.704C64.2347 22.2187 63.7973 20.6293 63.392 19.072C62.9867 17.5147 62.6773 16.192 62.464 15.104H62.336ZM89.4525 27.36V31.712H74.7325V11.456H79.8525V27.36H89.4525ZM96.8213 31.712H91.7013V11.456H96.8213V31.712ZM100.67 31.712V11.456H115.71V15.616H105.79V19.456H114.398V23.616H105.79V27.552H115.71V31.712H100.67ZM131.384 11.456H136.504V31.712H131.416L125.656 23.136C125.208 22.4533 124.834 21.8773 124.536 21.408C124.237 20.9387 123.96 20.4693 123.704 20C123.448 19.5307 123.16 18.976 122.84 18.336L122.744 18.464C123.042 19.488 123.224 20.448 123.288 21.344C123.352 22.2187 123.384 23.072 123.384 23.904V31.712H118.264V11.456H123.352L129.112 20.032C129.56 20.6933 129.933 21.2693 130.232 21.76C130.53 22.2293 130.808 22.6987 131.064 23.168C131.32 23.6373 131.608 24.192 131.928 24.832L132.024 24.704C131.81 23.808 131.65 22.944 131.544 22.112C131.437 21.2587 131.384 20.416 131.384 19.584V11.456ZM153.478 11.456H158.598V31.712H153.51L147.75 23.136C147.302 22.4533 146.928 21.8773 146.63 21.408C146.331 20.9387 146.054 20.4693 145.798 20C145.542 19.5307 145.254 18.976 144.934 18.336L144.838 18.464C145.136 19.488 145.318 20.448 145.382 21.344C145.446 22.2187 145.478 23.072 145.478 23.904V31.712H140.358V11.456H145.446L151.206 20.032C151.654 20.6933 152.027 21.2693 152.326 21.76C152.624 22.2293 152.902 22.6987 153.158 23.168C153.414 23.6373 153.702 24.192 154.022 24.832L154.118 24.704C153.904 23.808 153.744 22.944 153.638 22.112C153.531 21.2587 153.478 20.416 153.478 19.584V11.456ZM167.571 31.712H162.451V11.456H177.491V15.616H167.571V20.256H176.851V24.416H167.571V31.712ZM184.049 31.712V15.776H178.289V11.456H194.929V15.776H189.169V31.712H184.049Z" fill="white"/>
<defs>
<linearGradient id="paint0_linear_4188_439" x1="34.5636" y1="27.4432" x2="20.2683" y2="17.6445" gradientUnits="userSpaceOnUse">
<stop stop-color="#00FFA3"/>
<stop offset="1" stop-color="#00FFA3" stop-opacity="0"/>
</linearGradient>
<linearGradient id="paint1_linear_4188_439" x1="32.2147" y1="13.8854" x2="19.2617" y2="5.49611" gradientUnits="userSpaceOnUse">
<stop stop-color="#00FFA3"/>
<stop offset="1" stop-color="#00FFA3" stop-opacity="0"/>
</linearGradient>
<clipPath id="clip0_4188_439">
<rect width="36" height="40" fill="white" transform="translate(0 1)"/>
</clipPath>
</defs>
</svg>
